<svg width="32" height="32" viewBox="0 0 32 32" fill="none" xmlns="http://www.w3.org/2000/svg">
<path d="M27.2268 4.58951L26.0306 4.41585L26.2472 2.92437C26.2757 2.72782 26.1397 2.5457 25.9435 2.51717L24.7924 2.35009L21.3355 1.84791L8.64033 0.00378044C8.4441 -0.0247452 8.26166 0.1113 8.23313 0.307845L4.47935 26.1521C4.47935 26.1521 4.41039 26.4022 4.58248 26.6329C5.06898 27.2846 5.63636 27.8473 5.63636 27.8473C5.74545 27.9721 5.79811 28.0614 5.99434 28.0899L23.4451 30.6246C23.6414 30.6532 23.8235 30.5171 23.852 30.3209L27.5306 4.99639C27.5591 4.80016 27.423 4.61804 27.2268 4.58951Z" fill="#3A3B73"/>
<path d="M26.8447 4.41898C26.8447 4.41898 26.4181 3.52529 26.225 3.07389L22.5151 28.6705L5.04922 26.126C4.89719 26.0991 4.85613 26.1558 4.93826 26.2659C5.17054 26.5774 5.99433 27.4426 5.99433 27.4426C6.04637 27.5022 6.07144 27.5448 6.16517 27.5583L23.0323 30.0084C23.126 30.0218 23.2132 29.9569 23.2269 29.8632L26.8983 4.63245C26.9074 4.57039 26.9021 4.54531 26.8447 4.41898Z" fill="#D4D1F0"/>
<path d="M21.2562 29.2057C21.2518 29.2057 21.2471 29.2054 21.2427 29.2048L18.8823 28.8619C16.8372 28.565 14.7517 28.2804 12.7349 28.0055C10.7174 27.7302 8.63155 27.4456 6.58868 27.1488C6.53727 27.1416 6.50153 27.0936 6.50906 27.0422C6.51658 26.9908 6.56423 26.955 6.61564 26.9629C8.65788 27.2594 10.7434 27.544 12.7602 27.819C14.7774 28.0942 16.8632 28.3788 18.9096 28.676L21.2697 29.0186C21.3211 29.0261 21.3568 29.0738 21.3493 29.1252C21.3424 29.1722 21.3023 29.2057 21.2562 29.2057Z" fill="#3A3B73"/>
<path d="M12.08 4.24532C11.9496 4.24532 11.8371 4.34281 11.8183 4.47228L11.4879 6.74712C11.4775 6.81733 11.4954 6.88692 11.5377 6.94366C11.58 7.0004 11.6418 7.03739 11.712 7.04742L21.0954 8.41038C21.1082 8.41226 21.1211 8.4132 21.1339 8.4132C21.2643 8.4132 21.3772 8.31571 21.396 8.18625L21.7264 5.91141C21.7364 5.8415 21.7189 5.7716 21.6765 5.71487C21.6339 5.65813 21.5722 5.62114 21.5019 5.61111L12.1186 4.24815C12.1057 4.24627 12.0929 4.24532 12.08 4.24532ZM21.1339 8.60128C21.112 8.60128 21.09 8.59972 21.0684 8.59658L11.685 7.23362C11.5653 7.21638 11.4593 7.15337 11.3869 7.0562C11.3145 6.95933 11.2841 6.8399 11.3017 6.72016L11.6321 4.44532C11.664 4.22401 11.8568 4.05724 12.08 4.05724C12.102 4.05724 12.1239 4.05881 12.1455 4.06194L21.5289 5.42491C21.6489 5.44215 21.7546 5.50515 21.827 5.60233C21.8994 5.69919 21.9298 5.81862 21.9123 5.93837L21.5819 8.21321C21.5499 8.43452 21.3571 8.60128 21.1339 8.60128Z" fill="white"/>
<path d="M17.1855 28.5688L16.7156 31.8035L17.7046 31.2972L18.4412 32L18.9033 28.8183L17.1855 28.5688Z" fill="#3A3B73"/>
</svg>